M48
; DRILL file {KiCad 8.0.4-8.0.4-0~ubuntu22.04.1} date 2024-07-29T20:54:44+0800
; FORMAT={-:-/ absolute / metric / decimal}
; #@! TF.CreationDate,2024-07-29T20:54:44+08:00
; #@! TF.GenerationSoftware,Kicad,Pcbnew,8.0.4-8.0.4-0~ubuntu22.04.1
; #@! TF.FileFunction,NonPlated,1,2,NPTH
FMAT,2
METRIC
; #@! TA.AperFunction,NonPlated,NPTH,ComponentDrill
T1C3.000
; #@! TA.AperFunction,NonPlated,NPTH,ComponentDrill
T2C5.250
; #@! TA.AperFunction,NonPlated,NPTH,ComponentDrill
T3C6.400
%
G90
G05
T1
X11.6Y-72.7
X18.6Y-73.75
X32.6Y-49.7
X39.6Y-50.75
X62.6Y-49.7
X68.6Y-22.7
X69.6Y-50.75
X75.6Y-23.75
X87.6Y-64.7
X94.6Y-65.75
X99.6Y-113.7
X106.6Y-114.75
X125.6Y-59.7
X125.6Y-89.7
X132.6Y-60.75
X132.6Y-90.75
X150.6Y-44.7
X150.6Y-74.7
X157.6Y-45.75
X157.6Y-75.75
X180.6Y-44.7
X180.6Y-74.7
X187.6Y-45.75
X187.6Y-75.75
X210.6Y-44.7
X210.6Y-74.7
X217.6Y-45.75
X217.6Y-75.75
T2
X16.0Y-68.0
X37.0Y-45.0
X67.0Y-45.0
X73.0Y-18.0
X92.0Y-60.0
X104.0Y-109.0
X130.0Y-55.0
X130.0Y-85.0
X155.0Y-40.0
X155.0Y-70.0
X185.0Y-40.0
X185.0Y-70.0
X215.0Y-40.0
X215.0Y-70.0
T3
X10.0Y-10.0
X10.0Y-120.0
X220.0Y-10.0
X220.0Y-120.0
M30
