G04 #@! TF.GenerationSoftware,KiCad,Pcbnew,8.0.4-8.0.4-0~ubuntu22.04.1*
G04 #@! TF.CreationDate,2024-07-29T20:53:54+08:00*
G04 #@! TF.ProjectId,halalsnackbox,68616c61-6c73-46e6-9163-6b626f782e6b,rev?*
G04 #@! TF.SameCoordinates,Original*
G04 #@! TF.FileFunction,Soldermask,Top*
G04 #@! TF.FilePolarity,Negative*
%FSLAX46Y46*%
G04 Gerber Fmt 4.6, Leading zero omitted, Abs format (unit mm)*
G04 Created by KiCad (PCBNEW 8.0.4-8.0.4-0~ubuntu22.04.1) date 2024-07-29 20:53:54*
%MOMM*%
%LPD*%
G01*
G04 APERTURE LIST*
G04 Aperture macros list*
%AMRoundRect*
0 Rectangle with rounded corners*
0 $1 Rounding radius*
0 $2 $3 $4 $5 $6 $7 $8 $9 X,Y pos of 4 corners*
0 Add a 4 corners polygon primitive as box body*
4,1,4,$2,$3,$4,$5,$6,$7,$8,$9,$2,$3,0*
0 Add four circle primitives for the rounded corners*
1,1,$1+$1,$2,$3*
1,1,$1+$1,$4,$5*
1,1,$1+$1,$6,$7*
1,1,$1+$1,$8,$9*
0 Add four rect primitives between the rounded corners*
20,1,$1+$1,$2,$3,$4,$5,0*
20,1,$1+$1,$4,$5,$6,$7,0*
20,1,$1+$1,$6,$7,$8,$9,0*
20,1,$1+$1,$8,$9,$2,$3,0*%
G04 Aperture macros list end*
%ADD10RoundRect,0.381000X1.119000X0.381000X-1.119000X0.381000X-1.119000X-0.381000X1.119000X-0.381000X0*%
%ADD11RoundRect,0.381000X-0.381000X1.119000X-0.381000X-1.119000X0.381000X-1.119000X0.381000X1.119000X0*%
%ADD12RoundRect,0.381000X0.381000X-1.119000X0.381000X1.119000X-0.381000X1.119000X-0.381000X-1.119000X0*%
%ADD13C,2.000000*%
%ADD14C,6.400000*%
%ADD15C,3.000000*%
%ADD16C,5.250000*%
G04 APERTURE END LIST*
D10*
X124160000Y-1920000D03*
X124160000Y-4460000D03*
X124160000Y-7000000D03*
X124160000Y-9540000D03*
X124160000Y-12080000D03*
X124160000Y-14620000D03*
X124160000Y-17160000D03*
X124160000Y-19700000D03*
X124160000Y-22240000D03*
D11*
X120080000Y-23780000D03*
X117540000Y-23780000D03*
X115000000Y-23780000D03*
X112460000Y-23780000D03*
D12*
X109920000Y-23780000D03*
D10*
X105840000Y-22240000D03*
X105840000Y-19700000D03*
X105840000Y-17160000D03*
X105840000Y-14620000D03*
X105840000Y-12080000D03*
X105840000Y-9540000D03*
X105840000Y-7000000D03*
X105840000Y-1920000D03*
X105840000Y-4460000D03*
D13*
X157750000Y-13250000D03*
X157750000Y-6750000D03*
X162250000Y-13250000D03*
X162250000Y-6750000D03*
X197750000Y-13250000D03*
X197750000Y-6750000D03*
X202250000Y-13250000D03*
X202250000Y-6750000D03*
D14*
X10000000Y-120000000D03*
D13*
X177750000Y-13250000D03*
X177750000Y-6750000D03*
X182250000Y-13250000D03*
X182250000Y-6750000D03*
D14*
X220000000Y-10000000D03*
X220000000Y-120000000D03*
D13*
X167750000Y-13250000D03*
X167750000Y-6750000D03*
X172250000Y-13250000D03*
X172250000Y-6750000D03*
D14*
X10000000Y-10000000D03*
D15*
X11600000Y-72700000D03*
D16*
X16000000Y-68000000D03*
D15*
X18600000Y-73750000D03*
X150600000Y-44700000D03*
D16*
X155000000Y-40000000D03*
D15*
X157600000Y-45750000D03*
X87600000Y-64700000D03*
D16*
X92000000Y-60000000D03*
D15*
X94600000Y-65750000D03*
X125600000Y-89700000D03*
D16*
X130000000Y-85000000D03*
D15*
X132600000Y-90750000D03*
X32600000Y-49700000D03*
D16*
X37000000Y-45000000D03*
D15*
X39600000Y-50750000D03*
X68600000Y-22700000D03*
D16*
X73000000Y-18000000D03*
D15*
X75600000Y-23750000D03*
X180600000Y-74700000D03*
D16*
X185000000Y-70000000D03*
D15*
X187600000Y-75750000D03*
X125600000Y-59700000D03*
D16*
X130000000Y-55000000D03*
D15*
X132600000Y-60750000D03*
D13*
X147750000Y-13250000D03*
X147750000Y-6750000D03*
X152250000Y-13250000D03*
X152250000Y-6750000D03*
D15*
X62600000Y-49700000D03*
D16*
X67000000Y-45000000D03*
D15*
X69600000Y-50750000D03*
X99600000Y-113700000D03*
D16*
X104000000Y-109000000D03*
D15*
X106600000Y-114750000D03*
D13*
X187750000Y-13250000D03*
X187750000Y-6750000D03*
X192250000Y-13250000D03*
X192250000Y-6750000D03*
D15*
X210600000Y-74700000D03*
D16*
X215000000Y-70000000D03*
D15*
X217600000Y-75750000D03*
X150600000Y-74700000D03*
D16*
X155000000Y-70000000D03*
D15*
X157600000Y-75750000D03*
X180600000Y-44700000D03*
D16*
X185000000Y-40000000D03*
D15*
X187600000Y-45750000D03*
X210600000Y-44700000D03*
D16*
X215000000Y-40000000D03*
D15*
X217600000Y-45750000D03*
M02*
