G04 #@! TF.GenerationSoftware,KiCad,Pcbnew,8.0.4-8.0.4-0~ubuntu22.04.1*
G04 #@! TF.CreationDate,2024-07-29T20:53:54+08:00*
G04 #@! TF.ProjectId,halalsnackbox,68616c61-6c73-46e6-9163-6b626f782e6b,rev?*
G04 #@! TF.SameCoordinates,Original*
G04 #@! TF.FileFunction,Legend,Bot*
G04 #@! TF.FilePolarity,Positive*
%FSLAX46Y46*%
G04 Gerber Fmt 4.6, Leading zero omitted, Abs format (unit mm)*
G04 Created by KiCad (PCBNEW 8.0.4-8.0.4-0~ubuntu22.04.1) date 2024-07-29 20:53:54*
%MOMM*%
%LPD*%
G01*
G04 APERTURE LIST*
G04 Aperture macros list*
%AMRoundRect*
0 Rectangle with rounded corners*
0 $1 Rounding radius*
0 $2 $3 $4 $5 $6 $7 $8 $9 X,Y pos of 4 corners*
0 Add a 4 corners polygon primitive as box body*
4,1,4,$2,$3,$4,$5,$6,$7,$8,$9,$2,$3,0*
0 Add four circle primitives for the rounded corners*
1,1,$1+$1,$2,$3*
1,1,$1+$1,$4,$5*
1,1,$1+$1,$6,$7*
1,1,$1+$1,$8,$9*
0 Add four rect primitives between the rounded corners*
20,1,$1+$1,$2,$3,$4,$5,0*
20,1,$1+$1,$4,$5,$6,$7,0*
20,1,$1+$1,$6,$7,$8,$9,0*
20,1,$1+$1,$8,$9,$2,$3,0*%
G04 Aperture macros list end*
%ADD10C,0.120000*%
%ADD11C,2.000000*%
%ADD12C,6.400000*%
%ADD13C,3.000000*%
%ADD14C,5.250000*%
%ADD15RoundRect,0.500000X-0.750000X-0.775000X0.750000X-0.775000X0.750000X0.775000X-0.750000X0.775000X0*%
%ADD16C,2.500000*%
G04 APERTURE END LIST*
D10*
X9000000Y-70350000D02*
X9000000Y-71300000D01*
X9000000Y-70350000D02*
X11000000Y-70350000D01*
X9000000Y-75050000D02*
X9000000Y-74100000D01*
X9000000Y-75050000D02*
X11000000Y-75050000D01*
X21200000Y-71400000D02*
X19500000Y-71400000D01*
X21200000Y-71400000D02*
X21200000Y-72350000D01*
X21200000Y-76100000D02*
X19500000Y-76100000D01*
X21200000Y-76100000D02*
X21200000Y-75200000D01*
X148000000Y-42350000D02*
X148000000Y-43300000D01*
X148000000Y-42350000D02*
X150000000Y-42350000D01*
X148000000Y-47050000D02*
X148000000Y-46100000D01*
X148000000Y-47050000D02*
X150000000Y-47050000D01*
X160200000Y-43400000D02*
X158500000Y-43400000D01*
X160200000Y-43400000D02*
X160200000Y-44350000D01*
X160200000Y-48100000D02*
X158500000Y-48100000D01*
X160200000Y-48100000D02*
X160200000Y-47200000D01*
X85000000Y-62350000D02*
X85000000Y-63300000D01*
X85000000Y-62350000D02*
X87000000Y-62350000D01*
X85000000Y-67050000D02*
X85000000Y-66100000D01*
X85000000Y-67050000D02*
X87000000Y-67050000D01*
X97200000Y-63400000D02*
X95500000Y-63400000D01*
X97200000Y-63400000D02*
X97200000Y-64350000D01*
X97200000Y-68100000D02*
X95500000Y-68100000D01*
X97200000Y-68100000D02*
X97200000Y-67200000D01*
X123000000Y-87350000D02*
X123000000Y-88300000D01*
X123000000Y-87350000D02*
X125000000Y-87350000D01*
X123000000Y-92050000D02*
X123000000Y-91100000D01*
X123000000Y-92050000D02*
X125000000Y-92050000D01*
X135200000Y-88400000D02*
X133500000Y-88400000D01*
X135200000Y-88400000D02*
X135200000Y-89350000D01*
X135200000Y-93100000D02*
X133500000Y-93100000D01*
X135200000Y-93100000D02*
X135200000Y-92200000D01*
X30000000Y-47350000D02*
X30000000Y-48300000D01*
X30000000Y-47350000D02*
X32000000Y-47350000D01*
X30000000Y-52050000D02*
X30000000Y-51100000D01*
X30000000Y-52050000D02*
X32000000Y-52050000D01*
X42200000Y-48400000D02*
X40500000Y-48400000D01*
X42200000Y-48400000D02*
X42200000Y-49350000D01*
X42200000Y-53100000D02*
X40500000Y-53100000D01*
X42200000Y-53100000D02*
X42200000Y-52200000D01*
X66000000Y-20350000D02*
X66000000Y-21300000D01*
X66000000Y-20350000D02*
X68000000Y-20350000D01*
X66000000Y-25050000D02*
X66000000Y-24100000D01*
X66000000Y-25050000D02*
X68000000Y-25050000D01*
X78200000Y-21400000D02*
X76500000Y-21400000D01*
X78200000Y-21400000D02*
X78200000Y-22350000D01*
X78200000Y-26100000D02*
X76500000Y-26100000D01*
X78200000Y-26100000D02*
X78200000Y-25200000D01*
X178000000Y-72350000D02*
X178000000Y-73300000D01*
X178000000Y-72350000D02*
X180000000Y-72350000D01*
X178000000Y-77050000D02*
X178000000Y-76100000D01*
X178000000Y-77050000D02*
X180000000Y-77050000D01*
X190200000Y-73400000D02*
X188500000Y-73400000D01*
X190200000Y-73400000D02*
X190200000Y-74350000D01*
X190200000Y-78100000D02*
X188500000Y-78100000D01*
X190200000Y-78100000D02*
X190200000Y-77200000D01*
X123000000Y-57350000D02*
X123000000Y-58300000D01*
X123000000Y-57350000D02*
X125000000Y-57350000D01*
X123000000Y-62050000D02*
X123000000Y-61100000D01*
X123000000Y-62050000D02*
X125000000Y-62050000D01*
X135200000Y-58400000D02*
X133500000Y-58400000D01*
X135200000Y-58400000D02*
X135200000Y-59350000D01*
X135200000Y-63100000D02*
X133500000Y-63100000D01*
X135200000Y-63100000D02*
X135200000Y-62200000D01*
X60000000Y-47350000D02*
X60000000Y-48300000D01*
X60000000Y-47350000D02*
X62000000Y-47350000D01*
X60000000Y-52050000D02*
X60000000Y-51100000D01*
X60000000Y-52050000D02*
X62000000Y-52050000D01*
X72200000Y-48400000D02*
X70500000Y-48400000D01*
X72200000Y-48400000D02*
X72200000Y-49350000D01*
X72200000Y-53100000D02*
X70500000Y-53100000D01*
X72200000Y-53100000D02*
X72200000Y-52200000D01*
X97000000Y-111350000D02*
X97000000Y-112300000D01*
X97000000Y-111350000D02*
X99000000Y-111350000D01*
X97000000Y-116050000D02*
X97000000Y-115100000D01*
X97000000Y-116050000D02*
X99000000Y-116050000D01*
X109200000Y-112400000D02*
X107500000Y-112400000D01*
X109200000Y-112400000D02*
X109200000Y-113350000D01*
X109200000Y-117100000D02*
X107500000Y-117100000D01*
X109200000Y-117100000D02*
X109200000Y-116200000D01*
X208000000Y-72350000D02*
X208000000Y-73300000D01*
X208000000Y-72350000D02*
X210000000Y-72350000D01*
X208000000Y-77050000D02*
X208000000Y-76100000D01*
X208000000Y-77050000D02*
X210000000Y-77050000D01*
X220200000Y-73400000D02*
X218500000Y-73400000D01*
X220200000Y-73400000D02*
X220200000Y-74350000D01*
X220200000Y-78100000D02*
X218500000Y-78100000D01*
X220200000Y-78100000D02*
X220200000Y-77200000D01*
X148000000Y-72350000D02*
X148000000Y-73300000D01*
X148000000Y-72350000D02*
X150000000Y-72350000D01*
X148000000Y-77050000D02*
X148000000Y-76100000D01*
X148000000Y-77050000D02*
X150000000Y-77050000D01*
X160200000Y-73400000D02*
X158500000Y-73400000D01*
X160200000Y-73400000D02*
X160200000Y-74350000D01*
X160200000Y-78100000D02*
X158500000Y-78100000D01*
X160200000Y-78100000D02*
X160200000Y-77200000D01*
X178000000Y-42350000D02*
X178000000Y-43300000D01*
X178000000Y-42350000D02*
X180000000Y-42350000D01*
X178000000Y-47050000D02*
X178000000Y-46100000D01*
X178000000Y-47050000D02*
X180000000Y-47050000D01*
X190200000Y-43400000D02*
X188500000Y-43400000D01*
X190200000Y-43400000D02*
X190200000Y-44350000D01*
X190200000Y-48100000D02*
X188500000Y-48100000D01*
X190200000Y-48100000D02*
X190200000Y-47200000D01*
X208000000Y-42350000D02*
X208000000Y-43300000D01*
X208000000Y-42350000D02*
X210000000Y-42350000D01*
X208000000Y-47050000D02*
X208000000Y-46100000D01*
X208000000Y-47050000D02*
X210000000Y-47050000D01*
X220200000Y-43400000D02*
X218500000Y-43400000D01*
X220200000Y-43400000D02*
X220200000Y-44350000D01*
X220200000Y-48100000D02*
X218500000Y-48100000D01*
X220200000Y-48100000D02*
X220200000Y-47200000D01*
%LPC*%
D11*
X157750000Y-13250000D03*
X157750000Y-6750000D03*
X162250000Y-13250000D03*
X162250000Y-6750000D03*
X197750000Y-13250000D03*
X197750000Y-6750000D03*
X202250000Y-13250000D03*
X202250000Y-6750000D03*
D12*
X10000000Y-120000000D03*
D11*
X177750000Y-13250000D03*
X177750000Y-6750000D03*
X182250000Y-13250000D03*
X182250000Y-6750000D03*
D12*
X220000000Y-10000000D03*
X220000000Y-120000000D03*
D11*
X167750000Y-13250000D03*
X167750000Y-6750000D03*
X172250000Y-13250000D03*
X172250000Y-6750000D03*
D12*
X10000000Y-10000000D03*
D13*
X11600000Y-72700000D03*
D14*
X16000000Y-68000000D03*
D13*
X18600000Y-73750000D03*
D15*
X7925000Y-72700000D03*
D16*
X13400000Y-62250000D03*
X20400000Y-63300000D03*
D15*
X22275000Y-73750000D03*
D13*
X150600000Y-44700000D03*
D14*
X155000000Y-40000000D03*
D13*
X157600000Y-45750000D03*
D15*
X146925000Y-44700000D03*
D16*
X152400000Y-34250000D03*
X159400000Y-35300000D03*
D15*
X161275000Y-45750000D03*
D13*
X87600000Y-64700000D03*
D14*
X92000000Y-60000000D03*
D13*
X94600000Y-65750000D03*
D15*
X83925000Y-64700000D03*
D16*
X89400000Y-54250000D03*
X96400000Y-55300000D03*
D15*
X98275000Y-65750000D03*
D13*
X125600000Y-89700000D03*
D14*
X130000000Y-85000000D03*
D13*
X132600000Y-90750000D03*
D15*
X121925000Y-89700000D03*
D16*
X127400000Y-79250000D03*
X134400000Y-80300000D03*
D15*
X136275000Y-90750000D03*
D13*
X32600000Y-49700000D03*
D14*
X37000000Y-45000000D03*
D13*
X39600000Y-50750000D03*
D15*
X28925000Y-49700000D03*
D16*
X34400000Y-39250000D03*
X41400000Y-40300000D03*
D15*
X43275000Y-50750000D03*
D13*
X68600000Y-22700000D03*
D14*
X73000000Y-18000000D03*
D13*
X75600000Y-23750000D03*
D15*
X64925000Y-22700000D03*
D16*
X70400000Y-12250000D03*
X77400000Y-13300000D03*
D15*
X79275000Y-23750000D03*
D13*
X180600000Y-74700000D03*
D14*
X185000000Y-70000000D03*
D13*
X187600000Y-75750000D03*
D15*
X176925000Y-74700000D03*
D16*
X182400000Y-64250000D03*
X189400000Y-65300000D03*
D15*
X191275000Y-75750000D03*
D13*
X125600000Y-59700000D03*
D14*
X130000000Y-55000000D03*
D13*
X132600000Y-60750000D03*
D15*
X121925000Y-59700000D03*
D16*
X127400000Y-49250000D03*
X134400000Y-50300000D03*
D15*
X136275000Y-60750000D03*
D11*
X147750000Y-13250000D03*
X147750000Y-6750000D03*
X152250000Y-13250000D03*
X152250000Y-6750000D03*
D13*
X62600000Y-49700000D03*
D14*
X67000000Y-45000000D03*
D13*
X69600000Y-50750000D03*
D15*
X58925000Y-49700000D03*
D16*
X64400000Y-39250000D03*
X71400000Y-40300000D03*
D15*
X73275000Y-50750000D03*
D13*
X99600000Y-113700000D03*
D14*
X104000000Y-109000000D03*
D13*
X106600000Y-114750000D03*
D15*
X95925000Y-113700000D03*
D16*
X101400000Y-103250000D03*
X108400000Y-104300000D03*
D15*
X110275000Y-114750000D03*
D11*
X187750000Y-13250000D03*
X187750000Y-6750000D03*
X192250000Y-13250000D03*
X192250000Y-6750000D03*
D13*
X210600000Y-74700000D03*
D14*
X215000000Y-70000000D03*
D13*
X217600000Y-75750000D03*
D15*
X206925000Y-74700000D03*
D16*
X212400000Y-64250000D03*
X219400000Y-65300000D03*
D15*
X221275000Y-75750000D03*
D13*
X150600000Y-74700000D03*
D14*
X155000000Y-70000000D03*
D13*
X157600000Y-75750000D03*
D15*
X146925000Y-74700000D03*
D16*
X152400000Y-64250000D03*
X159400000Y-65300000D03*
D15*
X161275000Y-75750000D03*
D13*
X180600000Y-44700000D03*
D14*
X185000000Y-40000000D03*
D13*
X187600000Y-45750000D03*
D15*
X176925000Y-44700000D03*
D16*
X182400000Y-34250000D03*
X189400000Y-35300000D03*
D15*
X191275000Y-45750000D03*
D13*
X210600000Y-44700000D03*
D14*
X215000000Y-40000000D03*
D13*
X217600000Y-45750000D03*
D15*
X206925000Y-44700000D03*
D16*
X212400000Y-34250000D03*
X219400000Y-35300000D03*
D15*
X221275000Y-45750000D03*
%LPD*%
M02*
