M48
; DRILL file {KiCad 8.0.4-8.0.4-0~ubuntu22.04.1} date 2024-07-29T20:54:44+0800
; FORMAT={-:-/ absolute / metric / decimal}
; #@! TF.CreationDate,2024-07-29T20:54:44+08:00
; #@! TF.GenerationSoftware,Kicad,Pcbnew,8.0.4-8.0.4-0~ubuntu22.04.1
; #@! TF.FileFunction,Plated,1,2,PTH
FMAT,2
METRIC
; #@! TA.AperFunction,Plated,PTH,ViaDrill
T1C0.300
; #@! TA.AperFunction,Plated,PTH,ComponentDrill
T2C1.100
; #@! TA.AperFunction,Plated,PTH,ComponentDrill
T3C1.500
%
G90
G05
T1
X101.5Y-4.5
T2
X147.75Y-6.75
X147.75Y-13.25
X152.25Y-6.75
X152.25Y-13.25
X157.75Y-6.75
X157.75Y-13.25
X162.25Y-6.75
X162.25Y-13.25
X167.75Y-6.75
X167.75Y-13.25
X172.25Y-6.75
X172.25Y-13.25
X177.75Y-6.75
X177.75Y-13.25
X182.25Y-6.75
X182.25Y-13.25
X187.75Y-6.75
X187.75Y-13.25
X192.25Y-6.75
X192.25Y-13.25
X197.75Y-6.75
X197.75Y-13.25
X202.25Y-6.75
X202.25Y-13.25
T3
X13.4Y-62.25
X20.4Y-63.3
X34.4Y-39.25
X41.4Y-40.3
X64.4Y-39.25
X70.4Y-12.25
X71.4Y-40.3
X77.4Y-13.3
X89.4Y-54.25
X96.4Y-55.3
X101.4Y-103.25
X108.4Y-104.3
X127.4Y-49.25
X127.4Y-79.25
X134.4Y-50.3
X134.4Y-80.3
X152.4Y-34.25
X152.4Y-64.25
X159.4Y-35.3
X159.4Y-65.3
X182.4Y-34.25
X182.4Y-64.25
X189.4Y-35.3
X189.4Y-65.3
X212.4Y-34.25
X212.4Y-64.25
X219.4Y-35.3
X219.4Y-65.3
M30
